# Blender 3.6.1
# www.blender.org
mtllib baoxiaoling2.mtl
o Cube
v 0.531698 3.545012 -0.531698
v 0.531698 2.481616 -0.531698
v 0.531698 3.545012 0.531698
v 0.531698 2.481616 0.531698
v -0.531698 3.545012 -0.531698
v -0.531698 2.481616 -0.531698
v -0.531698 3.545012 0.531698
v -0.531698 2.481616 0.531698
v -0.321312 2.481616 -0.321312
v -0.321312 2.481616 0.321312
v 0.321312 2.481616 -0.321312
v 0.321312 2.481616 0.321312
v -0.531698 2.481616 -0.531698
v -0.531698 2.481616 0.531698
v 0.531698 2.481616 -0.531698
v 0.531698 2.481616 0.531698
v -0.527946 2.258817 -0.321312
v -0.527946 2.258817 0.321312
v 0.527946 2.258817 -0.321312
v 0.527946 2.258817 0.321312
v -0.527946 0.263992 -0.321312
v -0.527946 0.263992 0.321312
v 0.527946 0.263992 -0.321312
v 0.527946 0.263992 0.321312
v 0.527946 1.730775 -0.321312
v -0.527946 1.730775 -0.321312
v -0.527946 1.730775 0.321312
v 0.527946 1.730775 0.321312
v -2.197865 2.258817 -0.321312
v -2.197865 2.258817 0.321312
v -2.197865 1.730775 -0.321312
v -2.197865 1.730775 0.321312
v 2.176961 2.258817 0.321312
v 2.176961 2.258817 -0.321312
v 2.176961 1.730775 0.321312
v 2.176961 1.730775 -0.321312
v -0.527946 0.263992 -0.321312
v -0.527946 0.263992 0.321312
v 0.527946 0.263992 -0.321312
v 0.527946 0.263992 0.321312
v 0.000000 2.481616 -0.531698
v 0.000000 3.545012 0.531698
v 0.000000 2.481616 0.531698
v 0.000000 3.545012 -0.531698
v 0.000000 2.481616 -0.531698
v 0.000000 2.481616 0.531698
v 0.000000 2.481616 -0.321312
v 0.000000 2.481616 0.321312
v 0.000000 2.258817 -0.321312
v 0.000000 2.258817 0.321312
v 0.000000 0.263992 -0.321312
v 0.000000 0.263992 0.321312
v 0.000000 1.730775 0.321312
v 0.000000 1.730775 -0.321312
v 0.000000 0.263992 -0.321312
v 0.000000 0.263992 0.321312
v -1.227083 -1.643475 -0.321312
v -1.227083 -1.643475 0.321312
v -0.699137 -1.643475 -0.321312
v -0.699137 -1.643475 0.321312
v 0.815175 -1.641011 0.321312
v 1.343121 -1.641011 0.321312
v 1.343121 -1.641011 -0.321312
v 0.815175 -1.641011 -0.321312
vn -0.0000 1.0000 -0.0000
vn -0.0000 -0.0000 1.0000
vn -1.0000 -0.0000 -0.0000
vn 1.0000 -0.0000 -0.0000
vn -0.0000 -0.0000 -1.0000
vn 0.7332 0.6800 -0.0000
vn -0.0000 -1.0000 -0.0000
vn -0.7332 0.6800 -0.0000
vn 0.9194 0.3934 -0.0000
vn 0.9389 -0.3441 -0.0000
vn -0.9389 0.3441 -0.0000
vn -0.9194 -0.3934 -0.0000
vt 0.886862 0.753187
vt 0.778516 0.997383
vt 0.778516 0.753187
vt 0.883660 0.876540
vt 0.669137 0.993460
vt 0.669137 0.876540
vt 0.882653 0.754178
vt 0.674664 0.995632
vt 0.674664 0.754178
vt 0.375000 0.250000
vt 0.375000 0.000000
vt 0.881252 0.750665
vt 0.671039 1.000665
vt 0.671039 0.750665
vt 0.222920 0.998306
vt 0.117070 0.751172
vt 0.222920 0.751172
vt 0.325539 0.700539
vt 0.325539 0.549461
vt 0.375000 0.750000
vt 0.375000 0.500000
vt 0.375000 0.375000
vt 0.375000 1.000000
vt 0.375000 0.875000
vt 0.728700 0.932085
vt 0.692504 0.785330
vt 0.728700 0.821525
vt 0.783979 0.785330
vt 0.783979 0.821525
vt 0.839259 0.932085
vt 0.783979 0.968280
vt 0.783979 0.932085
vt 0.839259 0.821525
vt 0.875454 0.968280
vt 0.112912 0.618935
vt 0.222204 0.359378
vt 0.222204 0.618935
vt 0.155688 0.751802
vt 0.222204 0.712376
vt 0.222204 0.751802
vt 0.713512 0.750195
vt 0.779213 0.711708
vt 0.779213 0.750195
vt 0.174461 0.549461
vt 0.174461 0.700539
vt 0.250000 0.700539
vt 0.671260 0.620495
vt 0.779213 0.367124
vt 0.779213 0.620495
vt 0.776144 0.698013
vt 0.884779 0.370661
vt 0.884779 0.698013
vt 0.120534 0.680852
vt 0.249408 0.350624
vt 0.249408 0.680852
vt 0.558063 0.750623
vt 0.664613 0.377071
vt 0.664613 0.750623
vt 0.558627 0.747411
vt 0.666129 0.381352
vt 0.666129 0.747411
vt 0.671260 0.711708
vt 0.112912 0.712376
vt 0.707979 0.789209
vt 0.839622 0.969067
vt 0.707979 0.969067
vt 0.004687 0.747924
vt 0.107282 0.383676
vt 0.107282 0.747924
vt 0.558793 0.749135
vt 0.663413 0.379629
vt 0.663413 0.749135
vt 0.558548 0.749631
vt 0.663710 0.377703
vt 0.663710 0.749631
vt 0.720931 0.780100
vt 0.847061 0.952424
vt 0.720931 0.952424
vt 0.558668 0.747710
vt 0.665335 0.381054
vt 0.665335 0.747710
vt 0.003665 0.742589
vt 0.105812 0.384473
vt 0.105812 0.742589
vt 0.557854 0.747635
vt 0.666149 0.379698
vt 0.666149 0.747635
vt 0.114202 0.343279
vt 0.211830 0.002886
vt 0.211830 0.343279
vt 0.250000 0.549461
vt 0.116264 0.411810
vt 0.231847 0.001599
vt 0.231847 0.411810
vt 0.331496 0.618935
vt 0.331496 0.712376
vt 0.887165 0.620495
vt 0.887165 0.711708
vt 0.887165 0.367124
vt 0.844913 0.750195
vt 0.288720 0.751802
vt 0.331496 0.359378
vt 0.692504 0.968280
vt 0.875454 0.785330
vt 0.328772 0.998306
vt 0.328772 0.751172
vt 0.883660 0.759620
vt 0.669137 0.759620
vt 0.670170 0.997383
vt 0.670170 0.753187
vt 0.773784 0.005176
vt 0.688592 0.083088
vt 0.688592 0.005176
vt 0.330665 0.354247
vt 0.229983 -0.000066
vt 0.330665 0.002601
vt 0.120452 0.334326
vt 0.224405 0.008978
vt 0.224405 0.334179
vt 0.117743 0.370747
vt 0.241838 0.002602
vt 0.241838 0.370747
vt 0.858975 0.005176
vt 0.773784 0.083088
vt 0.117405 0.421358
vt 0.232841 0.003496
vt 0.232841 0.421358
vt 0.196764 0.370749
vt 0.115296 0.002600
vt 0.196764 0.002165
vt 0.114464 0.374880
vt 0.225703 -0.000100
vt 0.221880 0.376427
vt 0.886862 0.997383
vt 0.883660 0.993460
vt 0.882653 0.995632
vt 0.881252 1.000665
vt 0.117070 0.998306
vt 0.112912 0.359378
vt 0.671260 0.367124
vt 0.776144 0.370661
vt 0.120534 0.350624
vt 0.558063 0.377071
vt 0.558627 0.381353
vt 0.839622 0.789209
vt 0.004687 0.383676
vt 0.558793 0.379629
vt 0.558548 0.377703
vt 0.847061 0.780100
vt 0.558668 0.381054
vt 0.003665 0.384473
vt 0.557854 0.379698
vt 0.114202 0.002887
vt 0.116264 0.001599
vt 0.229983 0.355872
vt 0.120452 0.006264
vt 0.117743 0.002602
vt 0.858975 0.083088
vt 0.117405 0.003497
vt 0.115296 0.371185
vt 0.111915 -0.001647
s 0
usemtl Material
f 5/1/1 42/2/1 44/3/1
f 42/4/2 8/5/2 43/6/2
f 7/7/3 6/8/3 8/9/3
f 6/10/1 14/11/1 8/11/1
f 1/12/4 4/13/4 2/14/4
f 44/15/5 2/16/5 41/17/5
f 12/18/6 19/19/6 11/19/6
f 4/20/1 15/21/1 2/21/1
f 2/21/1 45/22/1 41/22/1
f 8/23/1 46/24/1 43/24/1
f 10/25/7 13/26/7 9/27/7
f 9/27/7 45/28/7 47/29/7
f 12/30/7 46/31/7 48/32/7
f 11/33/7 16/34/7 12/30/7
f 25/35/5 51/36/5 54/37/5
f 11/38/5 49/39/5 47/40/5
f 10/41/2 50/42/2 48/43/2
f 9/44/8 18/45/8 10/45/8
f 22/45/1 56/46/1 52/46/1
f 27/47/2 52/48/2 53/49/2
f 26/50/3 22/51/3 27/52/3
f 28/53/4 23/54/4 25/55/4
f 28/56/2 33/57/2 20/58/2
f 27/59/7 31/60/7 26/61/7
f 18/62/2 53/49/2 50/42/2
f 19/63/5 54/37/5 49/39/5
f 29/64/3 32/65/3 30/66/3
f 26/67/5 29/68/5 17/69/5
f 17/70/1 30/71/1 18/72/1
f 18/73/2 32/74/2 27/75/2
f 33/76/4 36/77/4 34/78/4
f 25/79/7 35/80/7 28/81/7
f 19/82/5 36/83/5 25/84/5
f 20/85/1 34/86/1 19/87/1
f 40/88/9 63/89/9 39/90/9
f 21/44/1 38/45/1 22/45/1
f 24/18/1 39/19/1 23/19/1
f 23/19/1 55/91/1 51/91/1
f 51/91/1 37/44/1 21/44/1
f 56/92/10 59/93/10 55/94/10
f 49/39/5 26/95/5 17/96/5
f 50/42/2 28/97/2 20/98/2
f 53/49/2 24/99/2 28/97/2
f 52/46/1 40/18/1 24/18/1
f 12/100/2 50/42/2 20/98/2
f 9/101/5 49/39/5 17/96/5
f 54/37/5 21/102/5 26/95/5
f 10/25/7 46/31/7 14/103/7
f 11/33/7 45/28/7 15/104/7
f 43/24/1 16/20/1 4/20/1
f 41/22/1 13/10/1 6/10/1
f 5/105/5 41/17/5 6/106/5
f 3/107/2 43/6/2 4/108/2
f 44/3/1 3/109/1 1/110/1
f 59/111/7 58/112/7 57/113/7
f 37/114/5 59/115/5 57/116/5
f 38/117/2 60/118/2 56/119/2
f 37/120/11 58/121/11 38/122/11
f 63/123/7 61/124/7 64/111/7
f 55/125/12 61/126/12 56/127/12
f 40/128/2 61/129/2 62/130/2
f 39/131/5 64/132/5 55/133/5
f 5/1/1 7/134/1 42/2/1
f 42/4/2 7/135/2 8/5/2
f 7/7/3 5/136/3 6/8/3
f 6/10/1 13/10/1 14/11/1
f 1/12/4 3/137/4 4/13/4
f 44/15/5 1/138/5 2/16/5
f 12/18/6 20/18/6 19/19/6
f 4/20/1 16/20/1 15/21/1
f 2/21/1 15/21/1 45/22/1
f 8/23/1 14/23/1 46/24/1
f 10/25/7 14/103/7 13/26/7
f 9/27/7 13/26/7 45/28/7
f 12/30/7 16/34/7 46/31/7
f 11/33/7 15/104/7 16/34/7
f 25/35/5 23/139/5 51/36/5
f 11/38/5 19/63/5 49/39/5
f 10/41/2 18/62/2 50/42/2
f 9/44/8 17/44/8 18/45/8
f 22/45/1 38/45/1 56/46/1
f 27/47/2 22/140/2 52/48/2
f 26/50/3 21/141/3 22/51/3
f 28/53/4 24/142/4 23/54/4
f 28/56/2 35/143/2 33/57/2
f 27/59/7 32/144/7 31/60/7
f 18/62/2 27/47/2 53/49/2
f 19/63/5 25/35/5 54/37/5
f 29/64/3 31/145/3 32/65/3
f 26/67/5 31/146/5 29/68/5
f 17/70/1 29/147/1 30/71/1
f 18/73/2 30/148/2 32/74/2
f 33/76/4 35/149/4 36/77/4
f 25/79/7 36/150/7 35/80/7
f 19/82/5 34/151/5 36/83/5
f 20/85/1 33/152/1 34/86/1
f 40/88/9 62/153/9 63/89/9
f 21/44/1 37/44/1 38/45/1
f 24/18/1 40/18/1 39/19/1
f 23/19/1 39/19/1 55/91/1
f 51/91/1 55/91/1 37/44/1
f 56/92/10 60/154/10 59/93/10
f 49/39/5 54/37/5 26/95/5
f 50/42/2 53/49/2 28/97/2
f 53/49/2 52/48/2 24/99/2
f 52/46/1 56/46/1 40/18/1
f 12/100/2 48/43/2 50/42/2
f 9/101/5 47/40/5 49/39/5
f 54/37/5 51/36/5 21/102/5
f 10/25/7 48/32/7 46/31/7
f 11/33/7 47/29/7 45/28/7
f 43/24/1 46/24/1 16/20/1
f 41/22/1 45/22/1 13/10/1
f 5/105/5 44/15/5 41/17/5
f 3/107/2 42/4/2 43/6/2
f 44/3/1 42/2/1 3/109/1
f 59/111/7 60/124/7 58/112/7
f 37/114/5 55/155/5 59/115/5
f 38/117/2 58/156/2 60/118/2
f 37/120/11 57/157/11 58/121/11
f 63/123/7 62/158/7 61/124/7
f 55/125/12 64/159/12 61/126/12
f 40/128/2 56/160/2 61/129/2
f 39/131/5 63/161/5 64/132/5
